<svg xmlns="http://www.w3.org/2000/svg" width="67.204" height="13.02" viewBox="0 0 67.204 13.02">
  <path id="午分之食" d="M12.348-5.908c-.294.336-.434.476-.728.476h-4V-8.89h3.22c.546,0,.868-.168.868-.532,0-.2-.266-.434-.6-.77-.294.322-.448.476-.714.476H4.41c.21-.392.42-.8.6-1.2.126-.266.028-.364-.294-.546l-.7-.392A21.548,21.548,0,0,1,1.2-6.174c-.14.182.056.35.21.238A11.488,11.488,0,0,0,3.92-8.89H6.426v3.458H.658c.322.672.35.826.616.826H6.426V.952c.588.14,1.19-.056,1.19-.8v-4.76h4.466c.56,0,.882-.154.882-.518C12.964-5.334,12.7-5.558,12.348-5.908Zm18.984.042a10.932,10.932,0,0,1-3.444-3.08,10.72,10.72,0,0,1-1.2-2.38c-.084-.21-.588-.224-.812-.14A15.163,15.163,0,0,0,27.09-8.582a10.256,10.256,0,0,0,2.688,3.164c.35.252.476.21,1.582-.238C31.444-5.7,31.486-5.782,31.332-5.866ZM28.07-6.454,27.2-6.776a.809.809,0,0,1-.672.378H21.182a13.692,13.692,0,0,0,2.982-3.878c.112-.224.07-.322-.28-.532l-.686-.406a16.01,16.01,0,0,1-4.326,6.062c-.168.14-.042.35.14.252a9.161,9.161,0,0,0,2.03-1.386c.224.5.294.686.532.686h1.764a9.174,9.174,0,0,1-.924,3.332,7.6,7.6,0,0,1-2.94,2.94c-.14.084-.112.336.168.266a6.191,6.191,0,0,0,3.71-2.688A10.347,10.347,0,0,0,24.528-5.6h2.646A14.641,14.641,0,0,1,26.5-.854c-.35.7-.378.742-1.876.6-.168-.014-.252.14-.1.21a5.31,5.31,0,0,1,1.218.756.69.69,0,0,0,.826.1c1.386-.63,1.666-3.738,1.792-6.342C28.378-5.88,28.854-6.16,28.07-6.454ZM42.882-9.716c.8,1.2,1.736.14.994-.882a4.768,4.768,0,0,0-1.96-1.19c-.2-.084-.322.042-.2.238C42.1-10.934,42.588-10.164,42.882-9.716ZM49.63-.742c-5.026.462-7.168-.308-8.638-1.3a17.335,17.335,0,0,0,6.748-6.1c.1-.168.154-.294-.154-.56l-.742-.644a.964.964,0,0,1-.7.364H37.66c.28.672.35.8.6.8h7.91a17.236,17.236,0,0,1-5.614,5.838c-.168-.126-.336-.252-.5-.392-.224-.168-.294-.168-.406-.014A15.854,15.854,0,0,1,36.9-.266c.924.7,1.218.952,1.54.532A19.528,19.528,0,0,0,39.872-2.31c1.68,2.38,4.06,3.066,8.6,2.884.336-.014.448-.14.658-.392.28-.35.56-.658.63-.756C49.812-.644,49.756-.756,49.63-.742Zm18.116-7a17.063,17.063,0,0,1-3.416-1.47,10.043,10.043,0,0,1-2.268-1.75c.154-.224.2-.308-.14-.546l-.714-.518a9.922,9.922,0,0,1-2.142,2.7,16.813,16.813,0,0,1-3.85,2.534.146.146,0,0,0,.084.28,9.871,9.871,0,0,0,2.884-1.176V-.294c-.56.112-1.162.21-1.82.308l.588.672c.252.28.364.294.854.14a32.59,32.59,0,0,0,4.7-1.778c.168-.112.028-.294-.14-.252-1.134.294-2.1.518-3.08.714v-3h4.368v.462c.56.084,1.092-.084,1.092-.6V-6.762c0-.252.406-.6-.154-.8L63.658-7.9a.716.716,0,0,1-.644.364h-.8a.673.673,0,0,0,.168-.938,3.368,3.368,0,0,0-1.428-.868c-.168-.07-.294.014-.182.21.21.364.5.952.714,1.288a.892.892,0,0,0,.294.308H59.29a.271.271,0,0,0-.224-.2L58.45-7.84c.322-.2.644-.392.952-.6a11.142,11.142,0,0,0,2.324-2.114,12.01,12.01,0,0,0,2.156,2.142,12.347,12.347,0,0,0,2.38,1.358c.5.224.574.112,1.526-.476C67.886-7.6,67.9-7.7,67.746-7.742ZM63.658-6.8v.938H59.29V-6.8ZM59.29-4.242v-.9h4.368v.9Zm6.9,3.948a15.285,15.285,0,0,0-2.38-1.33,14.709,14.709,0,0,0,2.072-.868c.294-.168.308-.252.014-.518l-.574-.532a6.508,6.508,0,0,1-.994.938,10.979,10.979,0,0,1-1.022.742,24.356,24.356,0,0,0-2.716-1.064c-.2-.056-.336.126-.112.252,1.5.84,4.032,2.576,5.194,3.4C66.514,1.33,67.326.616,66.192-.294Z" transform="translate(-0.658 12.026)" fill="#fff"/>
</svg>
