<svg xmlns="http://www.w3.org/2000/svg" width="32" height="32" viewBox="0 0 32 32">
  <path id="instagram-square-brands" d="M16,44.19A3.81,3.81,0,1,0,19.811,48,3.81,3.81,0,0,0,16,44.19Zm8.908-2.929a3.857,3.857,0,0,0-2.172-2.172c-1.5-.592-5.071-.459-6.736-.459s-5.232-.138-6.736.459a3.857,3.857,0,0,0-2.172,2.172c-.591,1.5-.459,5.075-.459,6.738s-.132,5.234.462,6.739A3.857,3.857,0,0,0,9.266,56.91c1.5.592,5.071.459,6.736.459s5.231.138,6.736-.459a3.857,3.857,0,0,0,2.172-2.172c.6-1.5.459-5.075.459-6.738s.137-5.233-.459-6.738ZM16,53.857a5.85,5.85,0,1,1,4.144-1.713A5.857,5.857,0,0,1,16,53.857Zm6.1-10.593a1.359,1.359,0,1,1,.969-.4,1.367,1.367,0,0,1-.969.4ZM28.571,32H3.429A3.429,3.429,0,0,0,0,35.429V60.571A3.429,3.429,0,0,0,3.429,64H28.571A3.429,3.429,0,0,0,32,60.571V35.429A3.429,3.429,0,0,0,28.571,32ZM27.349,52.714A6.8,6.8,0,0,1,25.5,57.5a6.8,6.8,0,0,1-4.786,1.846c-1.886.106-7.542.106-9.429,0A6.809,6.809,0,0,1,6.5,57.5a6.776,6.776,0,0,1-1.846-4.786c-.106-1.887-.106-7.544,0-9.429A6.774,6.774,0,0,1,6.5,38.5a6.812,6.812,0,0,1,4.786-1.841c1.886-.106,7.542-.106,9.429,0A6.8,6.8,0,0,1,25.5,38.505a6.8,6.8,0,0,1,1.846,4.789C27.455,45.174,27.455,50.826,27.349,52.714Z" transform="translate(0 -32)" fill="#8ca06e"/>
</svg>
