<svg xmlns="http://www.w3.org/2000/svg" width="32" height="32" viewBox="0 0 32 32">
  <path id="line-brands" d="M19.436,44.3v5.079a.226.226,0,0,1-.229.229h-.814a.236.236,0,0,1-.186-.093l-2.329-3.143v3.014a.226.226,0,0,1-.229.229h-.814a.226.226,0,0,1-.229-.229V44.307a.226.226,0,0,1,.229-.229h.807a.215.215,0,0,1,.186.1l2.329,3.143V44.307a.226.226,0,0,1,.229-.229H19.2A.226.226,0,0,1,19.436,44.3Zm-5.857-.229h-.814a.226.226,0,0,0-.229.229v5.079a.226.226,0,0,0,.229.229h.814a.226.226,0,0,0,.229-.229V44.3A.23.23,0,0,0,13.578,44.071Zm-1.964,4.257H9.393V44.3a.226.226,0,0,0-.229-.229H8.35a.226.226,0,0,0-.229.229v5.079a.21.21,0,0,0,.064.157.241.241,0,0,0,.157.064h3.264a.226.226,0,0,0,.229-.229v-.814a.229.229,0,0,0-.221-.229Zm12.107-4.257H20.457a.23.23,0,0,0-.229.229v5.079a.23.23,0,0,0,.229.229h3.264a.226.226,0,0,0,.229-.229v-.814a.226.226,0,0,0-.229-.229H21.5v-.857h2.221a.226.226,0,0,0,.229-.229v-.821a.226.226,0,0,0-.229-.229H21.5v-.857h2.221a.226.226,0,0,0,.229-.229V44.3a.24.24,0,0,0-.229-.229ZM32,37.836V58.214A5.818,5.818,0,0,1,26.164,64H5.786A5.823,5.823,0,0,1,0,58.164V37.786A5.823,5.823,0,0,1,5.836,32H26.214A5.818,5.818,0,0,1,32,37.836Zm-4.4,8.757c0-5.214-5.229-9.457-11.65-9.457S4.3,41.378,4.3,46.593c0,4.671,4.143,8.586,9.743,9.329,1.364.293,1.207.793.9,2.629-.05.293-.236,1.15,1.007.629a37.65,37.65,0,0,0,9.157-6.764A8.439,8.439,0,0,0,27.6,46.593Z" transform="translate(0 -32)" fill="#8ca06e"/>
</svg>
