<svg xmlns="http://www.w3.org/2000/svg" width="96.005" height="18.6" viewBox="0 0 96.005 18.6">
  <path id="午分之食" d="M17.64-8.44c-.42.48-.62.68-1.04.68H10.88V-12.7h4.6c.78,0,1.24-.24,1.24-.76,0-.28-.38-.62-.86-1.1-.42.46-.64.68-1.02.68H6.3c.3-.56.6-1.14.86-1.72.18-.38.04-.52-.42-.78l-1-.56A30.782,30.782,0,0,1,1.72-8.82c-.2.26.08.5.3.34A16.411,16.411,0,0,0,5.6-12.7H9.18v4.94H.94c.46.96.5,1.18.88,1.18H9.18V1.36c.84.2,1.7-.08,1.7-1.14v-6.8h6.38c.8,0,1.26-.22,1.26-.74C18.52-7.62,18.14-7.94,17.64-8.44Zm27.12.06a15.617,15.617,0,0,1-4.92-4.4,15.315,15.315,0,0,1-1.72-3.4c-.12-.3-.84-.32-1.16-.2a21.661,21.661,0,0,0,1.74,4.12,14.651,14.651,0,0,0,3.84,4.52c.5.36.68.3,2.26-.34C44.92-8.14,44.98-8.26,44.76-8.38ZM40.1-9.22l-1.24-.46a1.155,1.155,0,0,1-.96.54H30.26a19.56,19.56,0,0,0,4.26-5.54c.16-.32.1-.46-.4-.76l-.98-.58a22.871,22.871,0,0,1-6.18,8.66c-.24.2-.06.5.2.36a13.087,13.087,0,0,0,2.9-1.98c.32.72.42.98.76.98h2.52a13.106,13.106,0,0,1-1.32,4.76,10.857,10.857,0,0,1-4.2,4.2c-.2.12-.16.48.24.38a8.844,8.844,0,0,0,5.3-3.84A14.782,14.782,0,0,0,35.04-8h3.78c-.1,3.4-.5,5.84-.96,6.78-.5,1-.54,1.06-2.68.86-.24-.02-.36.2-.14.3a7.586,7.586,0,0,1,1.74,1.08.986.986,0,0,0,1.18.14c1.98-.9,2.38-5.34,2.56-9.06C40.54-8.4,41.22-8.8,40.1-9.22Zm21.16-4.66c1.14,1.72,2.48.2,1.42-1.26a6.812,6.812,0,0,0-2.8-1.7c-.28-.12-.46.06-.28.34C60.14-15.62,60.84-14.52,61.26-13.88ZM70.9-1.06C63.72-.4,60.66-1.5,58.56-2.92a24.765,24.765,0,0,0,9.64-8.72c.14-.24.22-.42-.22-.8l-1.06-.92a1.377,1.377,0,0,1-1,.52H53.8c.4.96.5,1.14.86,1.14h11.3c-1.56,3.1-4.44,5.78-8.02,8.34-.24-.18-.48-.36-.72-.56-.32-.24-.42-.24-.58-.02A22.649,22.649,0,0,1,52.72-.38c1.32,1,1.74,1.36,2.2.76A27.9,27.9,0,0,0,56.96-3.3C59.36.1,62.76,1.08,69.24.82c.48-.02.64-.2.94-.56.4-.5.8-.94.9-1.08C71.16-.92,71.08-1.08,70.9-1.06Zm25.88-10a24.375,24.375,0,0,1-4.88-2.1,14.347,14.347,0,0,1-3.24-2.5c.22-.32.28-.44-.2-.78l-1.02-.74a14.174,14.174,0,0,1-3.06,3.86,24.018,24.018,0,0,1-5.5,3.62.209.209,0,0,0,.12.4,14.1,14.1,0,0,0,4.12-1.68V-.42c-.8.16-1.66.3-2.6.44l.84.96c.36.4.52.42,1.22.2A46.557,46.557,0,0,0,89.3-1.36c.24-.16.04-.42-.2-.36-1.62.42-3,.74-4.4,1.02V-4.98h6.24v.66c.8.12,1.56-.12,1.56-.86V-9.66c0-.36.58-.86-.22-1.14l-1.34-.48a1.022,1.022,0,0,1-.92.52H88.88a.961.961,0,0,0,.24-1.34,4.812,4.812,0,0,0-2.04-1.24c-.24-.1-.42.02-.26.3.3.52.72,1.36,1.02,1.84a1.275,1.275,0,0,0,.42.44H84.7a.388.388,0,0,0-.32-.28l-.88-.16c.46-.28.92-.56,1.36-.86a15.917,15.917,0,0,0,3.32-3.02,17.157,17.157,0,0,0,3.08,3.06,17.639,17.639,0,0,0,3.4,1.94c.72.32.82.16,2.18-.68C96.98-10.86,97-11,96.78-11.06ZM90.94-9.72v1.34H84.7V-9.72ZM84.7-6.06V-7.34h6.24v1.28ZM94.56-.42a21.836,21.836,0,0,0-3.4-1.9,21.013,21.013,0,0,0,2.96-1.24c.42-.24.44-.36.02-.74l-.82-.76A9.3,9.3,0,0,1,91.9-3.72a15.685,15.685,0,0,1-1.46,1.06,34.793,34.793,0,0,0-3.88-1.52c-.28-.08-.48.18-.16.36,2.14,1.2,5.76,3.68,7.42,4.86C95.02,1.9,96.18.88,94.56-.42Z" transform="translate(-0.94 17.18)" fill="#fff"/>
</svg>
